<svg width="18" height="18" viewBox="0 0 18 18" fill="none" xmlns="http://www.w3.org/2000/svg">
<g id="age-1 1" clip-path="url(#clip0_3711_11080)">
<g id="Group">
<path id="Vector" d="M7.48681 0.130091C5.67377 0.456177 4.03029 1.33009 2.67377 2.67357C1.6042 3.74313 0.912899 4.86487 0.43029 6.32574C0.13029 7.23879 0.0781161 7.57792 0.0911596 8.99966C0.0911596 10.4084 0.13029 10.7736 0.43029 11.6736C0.912899 13.1214 1.6042 14.2562 2.67377 15.3257C3.74333 16.3953 4.87812 17.0866 6.32594 17.5692C7.23899 17.8692 7.57812 17.9214 8.99986 17.9084C10.4086 17.9084 10.7738 17.8692 11.6738 17.5692C13.1216 17.0866 14.2564 16.3953 15.3259 15.3257C16.4086 14.2431 17.0999 13.1084 17.5564 11.6736C17.9738 10.3562 18.052 8.79096 17.7129 8.55618C17.2694 8.28226 17.0346 8.60835 16.9303 9.66487C16.7738 11.2562 16.2259 12.6127 15.2477 13.9301C13.8912 15.717 11.3477 16.9562 8.99986 16.9562C6.82159 16.9562 4.47377 15.9127 3.06507 14.3084C2.32159 13.4736 1.36942 11.5431 1.18681 10.5127C0.69116 7.76053 1.66942 4.85183 3.69116 3.06487C4.59116 2.26922 6.46942 1.35618 7.61725 1.16052C9.41725 0.860525 11.6738 1.27792 13.1086 2.19096L13.6303 2.53009L13.1999 2.6214C12.6129 2.73879 12.4694 2.90835 12.5738 3.32574L12.6651 3.67792L13.6303 3.58661C14.1651 3.53444 14.7651 3.45618 14.9607 3.404L15.3259 3.29966L15.2868 2.08661C15.2477 0.834438 15.1433 0.521395 14.752 0.521395C14.4129 0.521395 14.2172 0.795307 14.2172 1.25183V1.68226L13.4738 1.22574C11.8825 0.260525 9.32594 -0.195997 7.48681 0.130091Z" fill="#333333"/>
<path id="Vector_2" d="M4.16064 6.67803C3.95194 6.8476 2.47803 10.6172 2.47803 10.9693C2.47803 11.2302 2.7389 11.478 3.0389 11.478C3.18238 11.478 3.3389 11.3085 3.46933 11.0215C3.65194 10.565 3.65194 10.565 4.49977 10.565C5.34759 10.565 5.34759 10.565 5.5302 11.0215C5.7389 11.4911 6.06498 11.6215 6.36498 11.3215C6.61281 11.0737 6.57368 10.9041 5.79107 8.81716C5.09977 6.96499 4.85194 6.52151 4.49977 6.52151C4.42151 6.52151 4.26498 6.59977 4.16064 6.67803ZM4.79977 9.09107C4.94324 9.50846 4.9302 9.52151 4.55194 9.52151C4.13455 9.52151 4.08238 9.35194 4.3302 8.80412C4.49977 8.42586 4.60411 8.49107 4.79977 9.09107Z" fill="#333333"/>
<path id="Vector_3" d="M8.67377 6.76917C6.66508 7.69526 6.71725 10.4213 8.76508 11.2822C9.93899 11.7648 11.0738 11.3083 11.6216 10.1083C11.9086 9.48221 11.9346 8.83004 11.6868 8.62135C11.3868 8.37352 9.9129 8.49091 9.73029 8.76482C9.5216 9.10395 9.78247 9.44308 10.2912 9.49526C10.7999 9.54743 10.8129 9.79526 10.3433 10.1735C10.0564 10.3953 9.86073 10.4474 9.46943 10.3953C8.76508 10.304 8.33464 9.83439 8.25638 9.07787C8.23393 8.61654 8.25638 8.50059 8.66073 8.0083C9.10421 7.56482 9.16943 7.53874 9.75638 7.617C11.1259 7.79961 11.152 7.78656 11.1912 7.39526C11.2303 7.08221 11.1651 7.00395 10.6694 6.78221C9.96508 6.46917 9.33899 6.45613 8.67377 6.76917Z" fill="#333333"/>
<path id="Vector_4" d="M13.0693 6.67822C12.8215 6.92605 12.8476 11.1391 13.0954 11.3347C13.2128 11.4391 13.6563 11.4782 14.2954 11.4521C15.078 11.426 15.3259 11.3608 15.4432 11.1782C15.6911 10.7869 15.3911 10.5 14.6215 10.4608C13.9563 10.4217 13.9563 10.4217 13.9563 9.97822C13.9563 9.54779 13.9693 9.53474 14.5563 9.49561C15.7041 9.41735 15.7041 8.58257 14.5563 8.50431C13.9693 8.46518 13.9563 8.45213 13.9563 8.00866C13.9563 7.56518 13.9563 7.56518 14.5302 7.56518C15.2998 7.56518 15.5215 7.46083 15.5215 7.1217C15.5215 6.63909 15.2737 6.5217 14.2172 6.5217C13.6172 6.5217 13.1606 6.58692 13.0693 6.67822Z" fill="#333333"/>
</g>
</g>
<defs>
<clipPath id="clip0_3711_11080">
<rect width="18" height="18" fill="white"/>
</clipPath>
</defs>
</svg>
