<svg width="1453"  viewBox="0 0 1453 126" fill="none" xmlns="http://www.w3.org/2000/svg">
<path fill-rule="evenodd" clip-rule="evenodd" d="M0 126L60.1622 121.266C121.459 116.532 241.784 107.064 363.243 91.0405C484.703 74.6532 605.027 51.3468 726.487 46.6127C847.946 41.8786 968.27 56.0809 1089.73 60.4509C1211.19 65.185 1331.51 60.4509 1392.81 58.2659L1452.97 56.0809V0H1392.81C1331.51 0 1211.19 0 1089.73 0C968.27 0 847.946 0 726.487 0C605.027 0 484.703 0 363.243 0C241.784 0 121.459 0 60.1622 0H0V126Z" fill="#FFEDD3"/>
<path fill-rule="evenodd" clip-rule="evenodd" d="M0 75.6L48.4324 65.52C96.8649 55.44 193.73 35.28 290.595 40.32C387.459 45.36 484.324 75.6 581.189 95.76C678.054 115.92 774.919 126 871.784 126C968.649 126 1065.51 115.92 1162.38 98.28C1259.24 80.64 1356.11 55.44 1404.54 42.84L1452.97 30.24V0L1404.54 3.93391e-06C1356.11 3.93391e-06 1259.24 3.93391e-06 1162.38 3.93391e-06C1065.51 3.93391e-06 968.649 3.93391e-06 871.784 3.93391e-06C774.919 3.93391e-06 678.054 3.93391e-06 581.189 3.93391e-06C484.324 3.93391e-06 387.459 3.93391e-06 290.595 3.93391e-06C193.73 3.93391e-06 96.8649 3.93391e-06 48.4324 3.93391e-06L0 0V75.6Z" fill="#FF9559"/>
</svg>
