<svg width="119" height="119" viewBox="0 0 119 119" fill="none" xmlns="http://www.w3.org/2000/svg">
<g clip-path="url(#clip0_196_3112)">
<rect width="119" height="119" fill="#FFE8DA"/>
<path d="M88.2745 37.3477H67.8496V94.0836H92.8134V41.8865C92.8134 40.6827 92.3352 39.5283 91.484 38.6771C90.6328 37.8259 89.4783 37.3477 88.2745 37.3477ZM76.9274 75.9281H72.3885V71.3892H76.9274V75.9281ZM76.9274 64.5809H72.3885V60.042H76.9274V64.5809ZM76.9274 53.2337H72.3885V48.6948H76.9274V53.2337ZM86.0051 75.9281H81.4662V71.3892H86.0051V75.9281ZM86.0051 64.5809H81.4662V60.042H86.0051V64.5809ZM86.0051 53.2337H81.4662V48.6948H86.0051V53.2337Z" fill="#FFA979"/>
<path d="M58.4998 26H31.8112C30.5352 26 29.3114 26.5069 28.4092 27.4092C27.5069 28.3114 27 29.5352 27 30.8112V94.0831H38.3472V87.2748H51.9638V94.0831H63.311V30.8112C63.311 29.5352 62.8041 28.3114 61.9018 27.4092C60.9995 26.5069 59.7758 26 58.4998 26ZM38.3472 75.9276H33.8083V71.3887H38.3472V75.9276ZM38.3472 64.5804H33.8083V60.0415H38.3472V64.5804ZM38.3472 53.2332H33.8083V48.6944H38.3472V53.2332ZM38.3472 41.8861H33.8083V37.3472H38.3472V41.8861ZM47.4249 75.9276H42.8861V71.3887H47.4249V75.9276ZM47.4249 64.5804H42.8861V60.0415H47.4249V64.5804ZM47.4249 53.2332H42.8861V48.6944H47.4249V53.2332ZM47.4249 41.8861H42.8861V37.3472H47.4249V41.8861ZM56.5027 75.9276H51.9638V71.3887H56.5027V75.9276ZM56.5027 64.5804H51.9638V60.0415H56.5027V64.5804ZM56.5027 53.2332H51.9638V48.6944H56.5027V53.2332ZM56.5027 41.8861H51.9638V37.3472H56.5027V41.8861Z" fill="#E0763A"/>
</g>
<defs>
<clipPath id="clip0_196_3112">
<rect width="119" height="119" fill="white"/>
</clipPath>
</defs>
</svg>
