<svg width="44" height="44" viewBox="0 0 44 44" fill="none" xmlns="http://www.w3.org/2000/svg">
<rect width="44" height="44" rx="5" fill="#F8F8F8"/>
<path d="M22 8C19.2311 8 16.5243 8.82109 14.222 10.3594C11.9197 11.8978 10.1253 14.0843 9.06569 16.6424C8.00607 19.2006 7.72882 22.0155 8.26901 24.7313C8.80921 27.447 10.1426 29.9416 12.1005 31.8995C14.0584 33.8574 16.553 35.1908 19.2687 35.731C21.9845 36.2712 24.7994 35.9939 27.3576 34.9343C29.9157 33.8747 32.1022 32.0803 33.6406 29.778C35.1789 27.4757 36 24.7689 36 22C35.9958 18.2883 34.5194 14.7298 31.8948 12.1052C29.2702 9.48059 25.7117 8.00423 22 8ZM22 34C18.8174 34 15.7652 32.7357 13.5147 30.4853C11.2643 28.2348 10 25.1826 10 22C10 18.8174 11.2643 15.7652 13.5147 13.5147C15.7652 11.2643 18.8174 10 22 10V22L30.481 30.481C29.3688 31.5972 28.047 32.4827 26.5916 33.0866C25.1361 33.6905 23.5757 34.0009 22 34Z" fill="#4861AA"/>
</svg>
