<svg width="21" height="21" viewBox="0 0 21 21" fill="none" xmlns="http://www.w3.org/2000/svg">
<path d="M13.7847 5.5C13.7847 7.433 12.2177 9 10.2847 9C8.35167 9 6.78467 7.433 6.78467 5.5C6.78467 3.567 8.35167 2 10.2847 2C12.2177 2 13.7847 3.567 13.7847 5.5Z" fill="#ff9559"/>
<path d="M5.78445 18.4998H10.2844C10.2843 15.2996 13 12.4999 14.5 12C15 10.5 8.78462 8.50005 5.78445 10.9998C2.78428 13.4996 4.11778 17.6665 5.78445 18.4998Z" fill="#ff9559"/>
<path d="M18.3204 15.6061C18.6551 15.2714 18.6551 14.7286 18.3204 14.3939C17.9856 14.0592 17.4429 14.0592 17.1082 14.3939L14.7143 16.7878L13.6061 15.6796C13.2714 15.3449 12.7286 15.3449 12.3939 15.6796C12.0592 16.0144 12.0592 16.5571 12.3939 16.8918L14.1082 18.6061C14.4429 18.9408 14.9856 18.9408 15.3204 18.6061L18.3204 15.6061Z" fill="#ff9559"/>
</svg>
