<svg width="19" height="19" viewBox="0 0 19 19" fill="none" xmlns="http://www.w3.org/2000/svg">
<path d="M4.37639 13.2226C5.27282 14.4564 6.58437 15.3254 8.07009 15.6697C9.5558 16.0141 11.1159 15.8108 12.4637 15.0972C13.8116 14.3835 14.8566 13.2075 15.4069 11.7851C15.9571 10.3627 15.9757 8.78957 15.4591 7.35463C14.9425 5.91969 13.9254 4.71936 12.5948 3.97416C11.2641 3.22897 9.70926 2.98896 8.21584 3.29823C6.72243 3.6075 5.39077 4.44528 4.46552 5.65765C3.54026 6.87002 3.08356 8.37555 3.17933 9.89764M3.17933 9.89764L1.99183 8.71014M3.17933 9.89764L4.36683 8.71014" stroke="#494949" stroke-width="1.58333" stroke-linecap="round" stroke-linejoin="round"/>
<path d="M9.5 6.33337V9.50004L11.875 11.875" stroke="#494949" stroke-width="1.58333" stroke-linecap="round" stroke-linejoin="round"/>
</svg>
