<svg width="31" height="31" viewBox="0 0 31 31" fill="none" xmlns="http://www.w3.org/2000/svg">
<g id="occupied-_1_ 1" clip-path="url(#clip0_7039_1045)">
<path id="Ellipse 55" d="M23.7517 13.364C24.8237 13.3181 25.6834 12.4054 25.4861 11.3507C25.3544 10.6462 25.1506 9.95928 24.8392 9.30972C24.524 8.65194 24.1019 8.03981 23.6206 7.47492C22.9248 6.65816 21.6774 6.7537 20.9701 7.56057C20.2628 8.36744 20.3778 9.58676 20.9292 10.5072C21.0283 10.6725 21.1198 10.8427 21.2034 11.0171C21.287 11.1916 21.3623 11.3695 21.4291 11.5502C21.8012 12.5566 22.6797 13.41 23.7517 13.364Z" fill="#E5827F"/>
<g id="Group">
<path id="Vector" d="M2.29902 0.201473C1.28184 0.546589 0.579492 1.22471 0.191992 2.21768L0.0285156 2.63546L0.0103516 11.5661C-0.00175781 18.2929 0.0103516 20.5271 0.0648437 20.63C0.167773 20.8237 0.416016 20.8964 0.652148 20.7935C0.761133 20.7511 0.851953 20.7087 0.858008 20.6966C0.870117 20.6845 0.888281 16.646 0.906445 11.7175L0.936719 2.75655L1.13047 2.35089C1.3666 1.84229 1.79043 1.41241 2.26875 1.17628L2.63203 1.00069H15.4982H28.3645L28.7277 1.17628C29.2121 1.41846 29.6299 1.84835 29.866 2.35089L30.0598 2.75655V15.5017V28.2468L29.866 28.6525C29.6299 29.161 29.2061 29.5909 28.7277 29.8271L28.3645 30.0026H15.4982H2.63203L2.26875 29.8271C1.79043 29.5909 1.3666 29.161 1.13047 28.6525L0.936719 28.2468L0.918555 25.2134C0.900391 22.2769 0.894336 22.1739 0.779297 22.0468C0.61582 21.8712 0.300977 21.8773 0.125391 22.065L-0.0078125 22.2042L0.0103516 25.286L0.0285156 28.3679L0.179883 28.7614C0.494727 29.5607 1.03359 30.1903 1.73594 30.5657C2.49277 30.9653 1.50586 30.9411 15.4982 30.9411C29.4906 30.9411 28.5037 30.9653 29.2605 30.5657C29.9629 30.1903 30.5018 29.5667 30.8166 28.7614L30.968 28.3679V15.5017V2.63546L30.8166 2.2419C30.417 1.21866 29.648 0.492098 28.643 0.183308C28.2676 0.0622139 28.0133 0.0622139 15.474 0.0622139L2.69258 0.0682697L2.29902 0.201473Z" fill="black"/>
<path id="Vector_2" d="M2.96949 2.1271C2.6607 2.21792 2.21871 2.7023 2.12183 3.04136C1.81304 4.1312 2.95132 5.13628 3.96246 4.67007C5.25211 4.08276 4.9191 2.14526 3.52047 2.07866C3.33277 2.07261 3.08453 2.09077 2.96949 2.1271ZM3.71422 3.09585C4.02906 3.34409 3.82925 3.8769 3.41754 3.8769C3.1814 3.8769 2.99976 3.6771 2.99976 3.4228C2.99976 3.01714 3.38726 2.84155 3.71422 3.09585Z" fill="black"/>
<path id="Vector_3" d="M26.9952 2.22995C26.202 2.64167 26.0325 3.7194 26.6561 4.3612C27.5098 5.23913 28.9629 4.65182 28.9629 3.42272C28.9629 2.38132 27.9155 1.74557 26.9952 2.22995ZM27.9155 3.08366C28.2122 3.32585 28.0245 3.87682 27.637 3.87682C27.2252 3.87682 27.0254 3.34401 27.3403 3.09577C27.5401 2.93835 27.7338 2.93229 27.9155 3.08366Z" fill="black"/>
<path id="Vector_4" d="M14.0766 2.75673C12.3449 2.99891 10.7949 3.58016 9.36604 4.52469C9.04514 4.73661 8.73635 4.9788 8.68186 5.05751C8.50627 5.32391 8.73635 5.7538 9.05119 5.7538C9.13596 5.7538 9.4508 5.58426 9.7717 5.3663C11.7274 4.05243 14.1008 3.42274 16.341 3.6286C18.2059 3.80419 19.7074 4.33094 21.2696 5.36024C22.0022 5.83856 22.311 6.12919 22.5047 6.5288C22.7287 6.98895 22.7469 7.7034 22.535 8.09696C22.1899 8.75087 21.5844 9.14442 20.9184 9.14442C20.3856 9.14442 20.1676 9.05966 19.5742 8.64188C18.2059 7.66102 17.0434 7.26747 15.5297 7.26747C13.683 7.26747 12.0785 7.95165 10.7707 9.3079C10.0502 10.0526 9.63244 10.7307 9.26916 11.76C9.03303 12.4503 8.96037 12.5835 8.6758 12.8438C8.27619 13.2253 7.9674 13.3524 7.41643 13.3524C7.00471 13.3524 6.87756 13.3282 6.58693 13.1829C5.64846 12.7227 5.36994 11.7903 5.80588 10.5673C6.23576 9.3745 6.88967 8.20594 7.62229 7.32801C8.07033 6.7952 8.14299 6.662 8.0885 6.45008C8.034 6.23817 7.68889 6.06864 7.48303 6.16551C7.08342 6.34716 6.0299 7.83055 5.44865 9.02938C4.5465 10.9063 4.43752 12.0325 5.07326 13.0194C6.05412 14.5513 8.26408 14.739 9.4508 13.3888C9.75354 13.0497 9.86857 12.8257 10.135 12.087C10.8313 10.1434 12.2904 8.81141 14.2643 8.31493C14.894 8.15751 16.2805 8.17567 16.9223 8.35126C18.8113 8.85985 20.3129 10.2645 20.9184 12.0809C21.1363 12.7227 21.3059 13.0497 21.6086 13.3888C22.6137 14.527 24.4543 14.5997 25.5502 13.5462C25.9074 13.195 26.1375 12.8257 26.2889 12.3292C26.5492 11.4755 26.3373 10.5188 25.5199 8.87196C24.86 7.53993 24.0789 6.51669 22.9649 5.50555C21.4936 4.17958 19.5258 3.21083 17.552 2.84755C16.6498 2.67801 14.9424 2.63563 14.0766 2.75673ZM24.0426 8.12723C24.2485 8.42997 24.5572 8.96883 24.7328 9.32001C25.6229 11.1122 25.6955 12.0749 24.9811 12.8257C24.5391 13.304 23.7035 13.5099 23.092 13.2979C22.4442 13.08 22.099 12.6985 21.8266 11.8993C21.5965 11.2333 21.4209 10.8518 21.1666 10.4583L20.9547 10.1192L21.1787 10.0829C22.4502 9.87098 23.4008 8.97489 23.5885 7.81239C23.6127 7.67919 23.6369 7.5702 23.649 7.5702C23.6612 7.5702 23.8367 7.81844 24.0426 8.12723Z" fill="black"/>
<path id="Vector_5" d="M14.8018 10.8047C13.385 11.1559 12.4102 12.3911 12.4102 13.8321C12.4102 14.8916 12.8521 15.7635 13.6877 16.3811C14.5475 17.0168 15.6494 17.1561 16.6908 16.7625C17.2842 16.5446 17.4537 16.2418 17.1873 15.9028C17.0299 15.703 16.8604 15.703 16.3578 15.9028C16.0187 16.036 15.8916 16.0541 15.4436 16.036C14.5596 15.9996 13.9057 15.5819 13.5242 14.8008C13.3668 14.4799 13.3486 14.383 13.3486 13.8684C13.3486 13.3719 13.3729 13.2448 13.5121 12.9481C13.7361 12.4698 14.1055 12.0883 14.5838 11.8522C14.941 11.6766 15.0318 11.6584 15.5283 11.6584C15.9885 11.6584 16.1277 11.6827 16.4184 11.8219C17.3992 12.2821 17.9199 13.3356 17.6777 14.4012C17.6111 14.7039 17.6172 14.7463 17.7201 14.8916C17.8533 15.0672 18.1379 15.1278 18.3377 15.0188C18.6223 14.8735 18.7434 13.7715 18.5557 13.051C18.2711 11.9733 17.3508 11.0651 16.2852 10.8168C15.8189 10.7018 15.2195 10.7018 14.8018 10.8047Z" fill="black"/>
<path id="Vector_6" d="M15.2253 13.4134C15.0134 13.6193 15.0073 14.146 15.2132 14.3398C15.4009 14.5153 15.6794 14.5153 15.8489 14.3337C16.0487 14.1218 16.0366 13.6132 15.8308 13.4134C15.7521 13.3286 15.6128 13.262 15.528 13.262C15.4433 13.262 15.304 13.3286 15.2253 13.4134Z" fill="black"/>
<path id="Vector_7" d="M20.7898 20.2845C20.4811 20.4056 20.4629 20.5146 20.4629 21.9859C20.4629 23.2816 20.4689 23.3664 20.59 23.5178C20.7475 23.7176 21.0684 23.7357 21.25 23.5541C21.365 23.439 21.3711 23.3543 21.3711 21.9859C21.3711 20.6963 21.359 20.5267 21.2682 20.4178C21.135 20.2664 20.9594 20.2179 20.7898 20.2845Z" fill="black"/>
<path id="Vector_8" d="M17.8109 20.3815C17.6777 20.4723 17.6777 20.4905 17.6777 21.9739C17.6777 23.4028 17.6838 23.4815 17.7988 23.5844C17.9684 23.7358 18.259 23.7237 18.4225 23.5663C18.5254 23.4633 18.5557 23.3422 18.5738 23.0153L18.598 22.5975L18.9189 22.5733C20.0209 22.4825 20.3721 21.0475 19.4457 20.4602C19.1854 20.2967 19.1248 20.2846 18.5557 20.2846C18.1016 20.2846 17.9139 20.3088 17.8109 20.3815ZM19.034 21.326C19.1309 21.4834 19.0098 21.6409 18.7736 21.6651C18.592 21.6832 18.5859 21.6772 18.5859 21.435C18.5859 21.1928 18.592 21.1868 18.7736 21.2049C18.8826 21.217 18.9977 21.2715 19.034 21.326Z" fill="black"/>
<path id="Vector_9" d="M22.2317 20.4249C22.1046 20.5641 22.0985 20.6126 22.0985 21.9991C22.0985 23.7913 22.0319 23.6762 23.0673 23.6762C23.7151 23.6762 23.8059 23.6641 23.9149 23.5552C24.0784 23.3917 24.0723 23.0647 23.9089 22.9134C23.8241 22.8407 23.6667 22.7983 23.3942 22.7802C23.0309 22.7559 23.0067 22.7438 23.0067 22.6106C23.0067 22.4774 23.0309 22.4653 23.2792 22.4653C23.588 22.4653 23.8786 22.3442 23.9391 22.1928C24.0057 22.0052 23.9755 21.8235 23.8544 21.6903C23.7515 21.5813 23.6606 21.5571 23.37 21.5571C23.0067 21.5571 23.0067 21.5571 23.0067 21.3755C23.0067 21.1938 23.0067 21.1938 23.364 21.1938C23.8181 21.1938 24.036 21.0425 24.036 20.7337C24.036 20.3522 23.8968 20.2856 23.0794 20.2856C22.4073 20.2856 22.3528 20.2917 22.2317 20.4249Z" fill="black"/>
<path id="Vector_10" d="M24.7807 20.4305L24.6172 20.5758L24.6293 21.9865L24.6475 23.4033L24.7988 23.5365C24.932 23.6576 25.0168 23.6758 25.4406 23.6758C26.0461 23.6758 26.3307 23.591 26.6395 23.3246C27.0572 22.9734 27.1541 22.7191 27.1541 21.9805C27.1541 21.2418 27.0572 20.9875 26.6395 20.6303C26.3428 20.376 26.0158 20.2852 25.4043 20.2852C25.0168 20.2852 24.926 20.3033 24.7807 20.4305ZM25.9371 21.2539C26.143 21.3326 26.2762 21.6111 26.2762 21.9805C26.2762 22.477 26.0643 22.7676 25.707 22.7676H25.5496V21.9805C25.5496 21.2418 25.5557 21.1934 25.6646 21.1934C25.7313 21.1934 25.8523 21.2176 25.9371 21.2539Z" fill="black"/>
<path id="Vector_11" d="M4.72123 20.534C4.10971 20.8428 3.82514 21.3272 3.81908 22.078C3.81303 22.417 3.8433 22.5624 3.97045 22.8167C4.63041 24.1426 6.6224 24.0397 7.11283 22.6471C7.22182 22.3444 7.22787 21.7329 7.12494 21.4544C6.8767 20.7883 6.2349 20.3463 5.50834 20.3463C5.17533 20.3463 5.03608 20.3827 4.72123 20.534ZM6.05932 21.4907C6.26518 21.6965 6.29545 21.7571 6.29545 22.0114C6.29545 22.5139 5.99272 22.8288 5.50834 22.8288C5.02397 22.8288 4.72123 22.5139 4.72123 22.0114C4.72123 21.7571 4.75151 21.6965 4.95737 21.4907C5.16928 21.2788 5.22377 21.2545 5.50834 21.2545C5.79291 21.2545 5.8474 21.2788 6.05932 21.4907Z" fill="black"/>
<path id="Vector_12" d="M8.82263 20.4305C7.95076 20.7514 7.4906 21.7262 7.78728 22.6041C7.92048 22.9976 8.33826 23.4457 8.73181 23.6152C9.3615 23.8877 10.1244 23.7545 10.5058 23.3004C10.9236 22.8039 10.3605 22.2529 9.85798 22.6767C9.62185 22.8765 9.2404 22.9008 8.974 22.7312C8.28376 22.2892 8.63494 21.1994 9.44626 21.2721C9.59763 21.2842 9.80349 21.3326 9.91247 21.381C10.1668 21.484 10.415 21.3992 10.524 21.1752C10.639 20.933 10.5301 20.7029 10.2152 20.5273C9.90642 20.3517 9.1738 20.2973 8.82263 20.4305Z" fill="black"/>
<path id="Vector_13" d="M11.9587 20.4904C11.3169 20.7871 10.9173 21.4773 10.9717 22.1857C11.0444 23.0818 11.7952 23.7599 12.6973 23.7539C13.551 23.7478 14.2231 23.0697 13.7872 22.658C13.5995 22.4824 13.3512 22.4884 13.1272 22.6761C12.9516 22.8214 12.8426 22.8517 12.5339 22.8275C12.0374 22.7912 11.7165 22.1433 11.9587 21.6711C12.1524 21.3017 12.7155 21.1382 13.0788 21.3441C13.6298 21.6589 14.1081 21.0595 13.6358 20.6418C13.2665 20.3148 12.4854 20.2421 11.9587 20.4904Z" fill="black"/>
<path id="Vector_14" d="M14.4642 20.472C14.3492 20.587 14.3431 20.6476 14.3613 21.798L14.3794 22.9968L14.5671 23.2329C15.106 23.8989 16.1353 23.9292 16.6923 23.2935C16.9648 22.9786 17.0132 22.7425 17.0132 21.6405C17.0132 20.7445 17.0011 20.6536 16.8861 20.5023C16.7287 20.3025 16.4078 20.2843 16.2261 20.4659C16.1171 20.5749 16.105 20.6657 16.105 21.5618C16.105 22.0946 16.0808 22.5851 16.0445 22.6456C15.9537 22.8152 15.6751 22.8878 15.4511 22.797L15.2634 22.7183L15.2453 21.6587C15.2271 20.7202 15.215 20.587 15.1121 20.472C14.9607 20.3025 14.6337 20.3025 14.4642 20.472Z" fill="black"/>
<path id="Vector_15" d="M2.9779 26.1745C2.31794 26.4167 1.93044 27.1615 2.12419 27.8396C2.22712 28.221 2.66911 28.663 3.03239 28.7599C4.20095 29.0747 5.16364 27.9183 4.63083 26.8406C4.3281 26.2351 3.61364 25.9445 2.9779 26.1745ZM3.71657 27.1312C4.03142 27.3794 3.83161 27.9122 3.41989 27.9122C3.18376 27.9122 3.00212 27.7124 3.00212 27.4581C3.00212 27.0525 3.38962 26.8769 3.71657 27.1312Z" fill="black"/>
<path id="Vector_16" d="M27.0923 26.212C26.3476 26.5571 26.063 27.3745 26.4444 28.101C26.7411 28.6702 27.3829 28.9366 28.0247 28.761C28.4122 28.6581 28.836 28.21 28.939 27.8044C29.1993 26.7085 28.0913 25.7518 27.0923 26.212ZM27.9157 27.1202C28.2124 27.3624 28.0247 27.9133 27.6372 27.9133C27.2255 27.9133 27.0257 27.3805 27.3405 27.1323C27.5403 26.9749 27.7341 26.9688 27.9157 27.1202Z" fill="black"/>
</g>
<path id="Ellipse 54" d="M22.0918 8.79144C22.9577 8.15775 23.1565 6.92469 22.3693 6.19553C21.2996 5.2046 20.0225 4.45103 18.6214 3.99507C16.6007 3.33751 14.4243 3.33229 12.4005 3.98015C10.3766 4.62801 8.60791 5.89612 7.34472 7.60491C6.46883 8.78977 5.86679 10.1449 5.57134 11.5728C5.35394 12.6236 6.23184 13.512 7.30475 13.525C8.37766 13.5381 9.22957 12.6582 9.57062 11.6408C9.77684 11.0257 10.0789 10.4428 10.4693 9.91469C11.2478 8.86159 12.3379 8.08006 13.5851 7.6808C14.8324 7.28153 16.1736 7.28474 17.419 7.68999C18.0434 7.8932 18.6279 8.19234 19.153 8.57334C20.0214 9.2035 21.226 9.42512 22.0918 8.79144Z" fill="#B8DE9C"/>
</g>
<defs>
<clipPath id="clip0_7039_1045">
<rect width="31" height="31" fill="white"/>
</clipPath>
</defs>
</svg>
