<svg width="26" height="30" viewBox="0 0 26 30" fill="none" xmlns="http://www.w3.org/2000/svg">
<path d="M6.55309 17.9834H5.35156V19.7754H6.55309C7.03543 19.7754 7.41714 19.3505 7.41714 18.9041C7.41614 18.4011 7.03544 17.9834 6.55309 17.9834V17.9834Z" fill="black"/>
<path d="M11.3887 18.0186H10.1943V21.2423H11.3887C13.3317 21.2425 13.4173 18.0186 11.3887 18.0186Z" fill="black"/>
<path d="M21.1785 14.0215H1.37852C0.883516 14.0215 0.478516 14.4265 0.478516 14.9215V23.9215C0.478516 24.4165 0.883516 24.8215 1.37852 24.8215H21.1785C21.6743 24.8215 22.0785 24.4165 22.0785 23.9215V14.9215C22.0785 14.4265 21.6743 14.0215 21.1785 14.0215ZM6.55326 20.6753H5.35173V21.6257C5.35173 21.9423 5.15024 22.1215 4.89089 22.1215C4.65323 22.1215 4.40212 21.9423 4.40212 21.6247V17.5739C4.40212 17.3362 4.58935 17.0763 4.89089 17.0763L6.55326 17.0761C7.48921 17.0761 8.33156 17.7025 8.33156 18.904C8.33076 20.0416 7.48921 20.6752 6.55326 20.6752L6.55326 20.6753ZM11.4538 22.1215H9.74121C9.50356 22.1215 9.2444 21.991 9.2444 21.6752V17.5882C9.2444 17.329 9.50356 17.1418 9.74121 17.1418H11.3891C14.6775 17.1418 14.6056 22.1215 11.4538 22.1215L11.4538 22.1215ZM17.8665 18.0769H15.7714V19.2208H17.6065C17.8667 19.2208 18.1248 19.48 18.1248 19.7321C18.1248 19.9697 17.8665 20.1632 17.6065 20.1632H15.7714V21.6743C15.7714 21.9262 15.5922 22.1207 15.3403 22.1207C15.0234 22.1207 14.829 21.9262 14.829 21.6743V17.5873C14.829 17.3282 15.0243 17.141 15.3403 17.141H17.8665C18.1833 17.141 18.3695 17.3282 18.3695 17.5873C18.3695 17.8186 18.1833 18.0769 17.8665 18.0769L17.8665 18.0769Z" fill="black"/>
<path d="M24.7789 7.34863L18.8518 1.42148C18.3315 0.899587 17.4172 0.521484 16.6791 0.521484H6.7791C5.2905 0.521484 4.0791 1.73288 4.0791 3.22148V12.2215C4.0791 12.7191 4.48149 13.1215 4.9791 13.1215C5.47671 13.1215 5.8791 12.7191 5.8791 12.2215V3.22148C5.8791 2.72568 6.28229 2.32148 6.7791 2.32148H14.8791C15.8735 2.32148 16.6791 3.12788 16.6791 4.12148V7.49648C16.6791 8.61063 17.5918 9.52148 18.7041 9.52148H22.0791C23.0735 9.52148 23.8791 10.3279 23.8791 11.3215V26.6215C23.8791 27.1173 23.4767 27.5215 22.9791 27.5215H6.7791C6.28229 27.5215 5.8791 27.1173 5.8791 26.6215C5.8791 26.1239 5.47671 25.7215 4.9791 25.7215C4.48149 25.7215 4.0791 26.1239 4.0791 26.6215C4.0791 28.1101 5.2905 29.3215 6.7791 29.3215H22.9791C24.4677 29.3215 25.6791 28.1101 25.6791 26.6215V9.52148C25.6791 8.78441 25.301 7.86996 24.7791 7.34883L24.7789 7.34863Z" fill="black"/>
</svg>
