<svg width="16" height="16" viewBox="0 0 16 16" fill="none" xmlns="http://www.w3.org/2000/svg">
<g id="noun-call-2442988 1">
<g id="Group">
<path id="Vector" d="M10.6255 14.3689C9.75082 14.2421 8.91948 13.9072 8.20101 13.3923C7.3686 12.8125 6.60396 12.141 5.92138 11.3904C5.08298 10.4944 4.22924 9.6099 3.48938 8.62167C2.90698 7.82809 2.38599 6.99614 2.10179 6.03996C1.9042 5.432 1.85251 4.78613 1.9508 4.15452C2.07884 3.4006 2.47812 2.78745 3.02472 2.27415C3.25008 2.07263 3.4949 1.89378 3.75563 1.74039C3.91072 1.64182 4.09142 1.59092 4.27517 1.59387C4.45901 1.59682 4.63794 1.65351 4.78982 1.75708C5.51759 2.19011 6.07535 2.85905 6.37062 3.65272C6.42125 3.76459 6.44098 3.8879 6.42768 4.00995C6.41437 4.13201 6.36857 4.24817 6.29508 4.34648C6.11205 4.59354 5.92133 4.83416 5.73705 5.08122C5.57446 5.30006 5.40553 5.51514 5.26089 5.7455V5.74559C5.18643 5.8505 5.14696 5.97631 5.14812 6.10497C5.14928 6.23372 5.19098 6.35873 5.26723 6.46239C5.63205 6.97434 5.98526 7.50177 6.38213 7.98945C7.10008 8.8782 7.89507 9.70186 8.7579 10.4509C8.94987 10.616 9.15594 10.762 9.36076 10.9117C9.44799 10.9795 9.55281 11.0208 9.66291 11.0308C9.77291 11.0408 9.88353 11.0191 9.98156 10.9681C10.201 10.8599 10.4146 10.7402 10.6216 10.6096C10.9083 10.4265 11.1899 10.2384 11.4715 10.058C11.5876 9.98368 11.7219 9.94288 11.8597 9.9402C11.9975 9.93744 12.1334 9.97288 12.2523 10.0426C12.9785 10.4029 13.5705 10.9859 13.9418 11.7065C14.0463 11.8865 14.0934 12.094 14.0769 12.3014C14.0604 12.5089 13.9812 12.7063 13.8497 12.8675C13.1418 13.7968 12.2369 14.3702 11.0337 14.3958C10.8972 14.3939 10.7609 14.3849 10.6254 14.369L10.6255 14.3689Z" fill="#373737"/>
</g>
</g>
</svg>
