<svg width="32" height="26" viewBox="0 0 32 26" fill="none" xmlns="http://www.w3.org/2000/svg">
<g id="fa-solid:users">
<path id="Vector" d="M4.8 11.377C6.565 11.377 8 9.91953 8 8.12695C8 6.33438 6.565 4.87695 4.8 4.87695C3.035 4.87695 1.6 6.33438 1.6 8.12695C1.6 9.91953 3.035 11.377 4.8 11.377ZM27.2 11.377C28.965 11.377 30.4 9.91953 30.4 8.12695C30.4 6.33438 28.965 4.87695 27.2 4.87695C25.435 4.87695 24 6.33438 24 8.12695C24 9.91953 25.435 11.377 27.2 11.377ZM28.8 13.002H25.6C24.72 13.002 23.925 13.3625 23.345 13.9465C25.36 15.0688 26.79 17.0949 27.1 19.502H30.4C31.285 19.502 32 18.7758 32 17.877V16.252C32 14.4594 30.565 13.002 28.8 13.002ZM16 13.002C19.095 13.002 21.6 10.4578 21.6 7.31445C21.6 4.17109 19.095 1.62695 16 1.62695C12.905 1.62695 10.4 4.17109 10.4 7.31445C10.4 10.4578 12.905 13.002 16 13.002ZM19.84 14.627H19.425C18.385 15.1348 17.23 15.4395 16 15.4395C14.77 15.4395 13.62 15.1348 12.575 14.627H12.16C8.98 14.627 6.4 17.2473 6.4 20.477V21.9395C6.4 23.2852 7.475 24.377 8.8 24.377H23.2C24.525 24.377 25.6 23.2852 25.6 21.9395V20.477C25.6 17.2473 23.02 14.627 19.84 14.627ZM8.655 13.9465C8.075 13.3625 7.28 13.002 6.4 13.002H3.2C1.435 13.002 0 14.4594 0 16.252V17.877C0 18.7758 0.715 19.502 1.6 19.502H4.895C5.21 17.0949 6.64 15.0688 8.655 13.9465Z" fill="#065096"/>
</g>
</svg>
