<svg width="28" height="22" viewBox="0 0 28 22" fill="none" xmlns="http://www.w3.org/2000/svg">
<path d="M20.25 21H26.5V18.5C26.4999 17.7207 26.2571 16.9607 25.8052 16.3258C25.3533 15.6909 24.7148 15.2125 23.9784 14.9572C23.2421 14.7019 22.4445 14.6823 21.6966 14.9013C20.9486 15.1202 20.2875 15.5667 19.805 16.1787M20.25 21H7.75M20.25 21V18.5C20.25 17.68 20.0925 16.8962 19.805 16.1787M19.805 16.1787C19.3408 15.0187 18.5397 14.0243 17.505 13.3239C16.4703 12.6235 15.2495 12.2491 14 12.2491C12.7505 12.2491 11.5297 12.6235 10.495 13.3239C9.46031 14.0243 8.65919 15.0187 8.195 16.1787M7.75 21H1.5V18.5C1.50006 17.7207 1.74292 16.9607 2.19483 16.3258C2.64673 15.6909 3.28523 15.2125 4.02156 14.9572C4.75789 14.7019 5.55547 14.6823 6.30342 14.9013C7.05137 15.1202 7.71254 15.5667 8.195 16.1787M7.75 21V18.5C7.75 17.68 7.9075 16.8962 8.195 16.1787M17.75 4.75C17.75 5.74456 17.3549 6.69839 16.6517 7.40165C15.9484 8.10491 14.9946 8.5 14 8.5C13.0054 8.5 12.0516 8.10491 11.3483 7.40165C10.6451 6.69839 10.25 5.74456 10.25 4.75C10.25 3.75544 10.6451 2.80161 11.3483 2.09835C12.0516 1.39509 13.0054 1 14 1C14.9946 1 15.9484 1.39509 16.6517 2.09835C17.3549 2.80161 17.75 3.75544 17.75 4.75ZM25.25 8.5C25.25 9.16304 24.9866 9.79893 24.5178 10.2678C24.0489 10.7366 23.413 11 22.75 11C22.087 11 21.4511 10.7366 20.9822 10.2678C20.5134 9.79893 20.25 9.16304 20.25 8.5C20.25 7.83696 20.5134 7.20107 20.9822 6.73223C21.4511 6.26339 22.087 6 22.75 6C23.413 6 24.0489 6.26339 24.5178 6.73223C24.9866 7.20107 25.25 7.83696 25.25 8.5ZM7.75 8.5C7.75 9.16304 7.48661 9.79893 7.01777 10.2678C6.54893 10.7366 5.91304 11 5.25 11C4.58696 11 3.95107 10.7366 3.48223 10.2678C3.01339 9.79893 2.75 9.16304 2.75 8.5C2.75 7.83696 3.01339 7.20107 3.48223 6.73223C3.95107 6.26339 4.58696 6 5.25 6C5.91304 6 6.54893 6.26339 7.01777 6.73223C7.48661 7.20107 7.75 7.83696 7.75 8.5Z" stroke="#025ECD" stroke-width="2" stroke-linecap="round" stroke-linejoin="round"/>
</svg>
