<svg width="40" height="40" viewBox="0 0 40 40" fill="none" xmlns="http://www.w3.org/2000/svg">
<g id="upload_file" opacity="0.8">
<path id="Vector" d="M32.3493 12.3499L24.2993 4.29992C23.6827 3.68325 22.8327 3.33325 21.9493 3.33325H9.99935C8.16602 3.33325 6.68268 4.83325 6.68268 6.66659L6.66602 33.3333C6.66602 35.1666 8.14935 36.6666 9.98268 36.6666H29.9993C31.8327 36.6666 33.3327 35.1666 33.3327 33.3333V14.7166C33.3327 13.8333 32.9827 12.9833 32.3493 12.3499ZM24.666 24.9999H21.666V29.9999C21.666 30.9166 20.916 31.6666 19.9993 31.6666C19.0827 31.6666 18.3327 30.9166 18.3327 29.9999V24.9999H15.3493C14.5993 24.9999 14.2327 24.0999 14.766 23.5833L19.4327 18.9333C19.766 18.6166 20.2827 18.6166 20.616 18.9333L25.266 23.5833C25.766 24.0999 25.3993 24.9999 24.666 24.9999ZM23.3327 14.9999C22.416 14.9999 21.666 14.2499 21.666 13.3333V5.83325L30.8327 14.9999H23.3327Z" fill="black"/>
</g>
</svg>
