<svg width="46" height="46" viewBox="0 0 46 46" fill="none" xmlns="http://www.w3.org/2000/svg">
<path d="M0 15C0 6.71573 6.71573 0 15 0H46V46H15C6.71573 46 0 39.2843 0 31V15Z" fill="#FF9559"/>
<path d="M24.5 23C28.1297 23 31.0714 20.0902 31.0714 16.5C31.0714 12.9098 28.1297 10 24.5 10C20.8703 10 17.9286 12.9098 17.9286 16.5C17.9286 20.0902 20.8703 23 24.5 23ZM29.1 24.625H28.2426C27.1029 25.143 25.8348 25.4375 24.5 25.4375C23.1652 25.4375 21.9022 25.143 20.7574 24.625H19.9C16.0906 24.625 13 27.682 13 31.45V33.5625C13 34.9082 14.1038 36 15.4643 36H33.5357C34.8962 36 36 34.9082 36 33.5625V31.45C36 27.682 32.9094 24.625 29.1 24.625Z" fill="white"/>
</svg>
