<svg width="30" height="30" viewBox="0 0 30 30" fill="none" xmlns="http://www.w3.org/2000/svg">
<g id="vacant_adobe_express 1">
<path id="Vector" d="M9.03293 12.7136C8.64048 10.7831 8.2347 8.85516 7.862 6.92086C7.70824 6.12284 7.48981 5.33079 7.5547 4.49947C7.64017 3.40456 8.11747 2.51306 8.9531 1.82961C9.71374 1.20749 10.6025 0.96839 11.5979 0.985199C13.7058 1.02079 15.8148 0.991016 17.9232 0.999319C18.5036 1.0016 19.0838 1.04371 19.676 1.11554C20.4549 2.04572 19.6867 3.23296 19.6866 4.26766C19.6863 6.57136 19.6892 8.87506 19.6851 11.1788C19.6834 12.1207 19.0816 12.7143 18.146 12.7147C17.3651 12.7151 16.5842 12.7173 15.8033 12.7119C15.6912 12.7112 15.5794 12.6722 15.4795 12.6359C15.56 12.566 15.6329 12.5158 15.6961 12.4556C16.0072 12.1594 16.0823 11.7367 15.8951 11.3567C15.7246 11.0105 15.3361 10.7999 14.9515 10.8451C14.5431 10.8931 14.2055 11.2042 14.1353 11.6139C14.0555 12.0799 14.2924 12.3961 14.6298 12.6646C14.5152 12.6915 14.4196 12.7132 14.324 12.7133C12.5603 12.7149 10.7966 12.714 9.03293 12.7136ZM17.2374 6.53427C17.7033 5.25467 17.0857 3.91676 15.8217 3.46725C14.6062 3.03498 13.2482 3.71014 12.8314 4.95385C12.6008 5.6422 12.6369 5.68663 13.3508 5.68787C13.5463 5.68821 13.6351 5.6453 13.6815 5.432C13.8276 4.76043 14.3571 4.30805 14.9816 4.27876C15.5397 4.25258 16.0999 4.58986 16.3316 5.09161C16.5805 5.63074 16.4848 6.22774 16.0551 6.65775C15.2482 7.46525 14.7581 8.42373 14.6061 9.55875C14.5024 10.3339 14.5352 10.3753 15.2446 10.3774C15.4936 10.3781 15.5296 10.2743 15.5308 10.0634C15.5367 9.04037 15.9147 8.17263 16.6164 7.42745C16.8527 7.17653 17.0213 6.8619 17.2374 6.53427Z" fill="#8AB4E2"/>
<path id="Vector_2" d="M15.4694 12.6519C15.5814 12.6732 15.6932 12.7121 15.8052 12.7129C16.5861 12.7183 17.367 12.716 18.148 12.7157C19.0835 12.7153 19.6854 12.1217 19.687 11.1797C19.6912 8.87601 19.6883 6.57231 19.6885 4.26861C19.6886 3.23391 19.6895 2.1992 19.6908 1.13672C21.1362 1.3631 21.9135 2.29122 22.3783 3.57467C22.6761 4.39704 22.5959 5.23718 22.4254 6.07439C22.1957 7.20217 21.9665 8.33006 21.7404 9.45858C21.5161 10.5781 21.2988 11.699 21.0726 12.8182C20.9918 13.2178 20.9074 13.6177 20.8002 14.0108C20.6986 14.3835 20.3969 14.5902 20.0099 14.5906C19.1612 14.5914 18.3125 14.5914 17.4092 14.5924C17.0599 14.595 16.7651 14.5967 16.4427 14.5962C15.1801 14.5946 13.9452 14.5954 12.7103 14.5961C11.8714 14.5943 11.0317 14.5697 10.194 14.5995C9.71404 14.6166 9.36261 14.3032 9.26035 13.8464C9.1796 13.4855 9.12058 13.0371 9.04688 12.6519C10.8142 12.6286 12.5623 12.7159 14.326 12.7142C14.4216 12.7142 14.5171 12.6925 14.6553 12.6709C14.9552 12.6579 15.2123 12.6549 15.4694 12.6519Z" fill="#78A0D4"/>
<path id="Vector_3" d="M17.4126 27.3117C17.0356 26.7283 16.5767 26.2383 15.8938 26.0164C14.733 25.6392 13.5606 26.0333 12.8332 27.12C12.7913 27.1826 12.7538 27.2482 12.6974 27.3179C12.4953 26.8691 12.2177 26.5084 11.6943 26.3651C11.09 26.1905 10.6205 26.4142 10.1934 26.7839C9.9208 26.7819 9.64824 26.7804 9.37569 26.7779C8.91791 26.7736 8.51894 26.3499 8.48938 25.8911C8.46416 25.4996 8.59507 25.2061 8.88304 24.949C9.28004 24.5947 9.63741 24.1934 10.0509 23.8609C10.3719 23.6029 10.7669 23.4865 11.198 23.4925C12.152 23.5059 13.1063 23.4962 14.1152 23.4951C14.7804 23.4929 15.3909 23.4916 16.0014 23.4902C16.9651 23.4924 17.9288 23.4964 18.8924 23.4961C19.4865 23.4959 19.9876 23.7126 20.4061 24.1285C20.7238 24.4441 21.0356 24.7657 21.3577 25.0766C21.6775 25.3852 21.6908 25.7664 21.572 26.1419C21.4347 26.576 21.0992 26.7778 20.6498 26.778C20.4259 26.7782 20.202 26.7786 19.9333 26.7718C19.6645 26.6348 19.4404 26.5049 19.1931 26.3677C18.7654 26.2449 18.3607 26.2724 18.0425 26.5411C17.7934 26.7515 17.6198 27.0515 17.4126 27.3117Z" fill="#78A0D4"/>
<path id="Vector_4" d="M17.407 16.459C18.7147 16.4617 20.0223 16.4643 21.3573 16.498C21.3849 16.9389 21.3882 17.3488 21.3845 17.7587C21.3784 18.4264 20.9917 18.8089 20.3236 18.809C16.0682 18.8094 11.8128 18.8089 7.55739 18.8088C7.55739 18.8088 7.55772 18.8139 7.55659 18.7865C7.5539 18.4613 7.55234 18.1636 7.55078 17.8658C7.55297 17.7101 7.55672 17.5544 7.55707 17.3987C7.55841 16.803 7.8896 16.4659 8.47668 16.4657C9.86901 16.465 11.2613 16.4649 12.7084 16.4638C14.3111 16.4617 15.859 16.4603 17.407 16.459Z" fill="#78A0D4"/>
<path id="Vector_5" d="M7.55866 18.8368C11.8141 18.8097 16.0695 18.8101 20.3249 18.8097C20.993 18.8097 21.3797 18.4271 21.3858 17.7595C21.3895 17.3496 21.3862 16.9396 21.3857 16.5029C22.0521 16.4408 22.3521 16.5687 22.5048 17.0414C22.5817 17.2793 22.5449 17.554 22.5603 17.8665C22.562 18.2197 22.563 18.5184 22.564 18.8171C22.5622 18.9923 22.5594 19.1675 22.5588 19.3428C22.5571 19.8571 22.2041 20.2158 21.6956 20.2161C19.8161 20.2169 17.9366 20.2169 16.0024 20.2179C15.6528 20.2194 15.3579 20.2202 15.0352 20.2196C14.7096 20.2188 14.4118 20.2194 14.114 20.22C12.233 20.2188 10.3519 20.2175 8.4709 20.2163C7.89816 20.2159 7.55894 19.8762 7.55863 19.3027C7.55855 19.1565 7.55863 19.0103 7.55866 18.8368Z" fill="#5E87CA"/>
<path id="Vector_6" d="M3.82074 14.5877C3.81791 13.5455 3.76922 12.5008 3.82683 11.462C3.87243 10.6398 4.63336 9.86848 5.66031 9.93353C5.6866 11.1793 5.68819 12.3943 5.68645 13.6093C5.68561 14.1954 5.30871 14.5783 4.72469 14.5878C4.42345 14.5926 4.12206 14.588 3.82074 14.5877Z" fill="#78A0D4"/>
<path id="Vector_7" d="M25.1352 10.0276C25.8076 10.2069 26.2955 10.9423 26.3037 11.5533C26.3176 12.5843 26.3079 13.6156 26.3074 14.6467C26.3072 15.1778 25.9632 15.5204 25.3735 15.5278C25.0229 15.5296 24.7242 15.5306 24.4255 15.5316C23.8327 15.5138 23.4952 15.1885 23.5275 14.6122C23.7623 14.5882 23.9665 14.5914 24.1705 14.5879C24.756 14.5779 25.1351 14.1972 25.136 13.6134C25.1376 12.4181 25.1357 11.2229 25.1352 10.0276Z" fill="#5E87CA"/>
<path id="Vector_8" d="M25.1146 10.0179C25.136 11.2235 25.138 12.4187 25.1363 13.614C25.1355 14.1979 24.7563 14.5785 24.1708 14.5886C23.9668 14.5921 23.7627 14.5889 23.5319 14.5885C23.5021 13.2764 23.4954 11.9646 23.4989 10.6529C23.4997 10.3339 23.8392 9.93121 24.1616 9.91598C24.4701 9.9014 24.7828 9.97352 25.1146 10.0179Z" fill="#78A0D4"/>
<path id="Vector_9" d="M3.81647 14.6138C4.1218 14.5897 4.42319 14.5943 4.72442 14.5894C5.30845 14.58 5.68535 14.1971 5.68619 13.611C5.68793 12.396 5.68634 11.181 5.68572 9.93911C6.25354 9.88522 6.62298 10.2303 6.62313 10.7896C6.62349 12.0753 6.62351 13.361 6.62311 14.6467C6.62294 15.18 6.28012 15.5222 5.68916 15.5297C5.33859 15.5314 5.03992 15.5324 4.74125 15.5334C4.14837 15.5156 3.81093 15.1904 3.81647 14.6138Z" fill="#5E87CA"/>
<path id="Vector_10" d="M17.4068 16.4327C15.861 16.461 14.313 16.4624 12.7373 16.4617C12.7123 16.1668 12.7152 15.8739 12.7483 15.5543C13.8951 15.5279 15.0117 15.5202 16.128 15.5345C16.4037 15.538 16.4911 15.4424 16.469 15.1811C16.4526 14.9885 16.4682 14.7931 16.4695 14.599C16.7643 14.5972 17.059 14.5955 17.3814 14.5957C17.4075 15.2004 17.4061 15.8031 17.4068 16.4327Z" fill="#3B5892"/>
<path id="Vector_11" d="M24.4312 15.5597C24.7273 15.5318 25.026 15.5308 25.3524 15.5313C25.3594 16.0452 25.3846 16.5646 25.3077 17.0684C25.1641 18.0088 24.1051 18.8834 23.1163 18.8105C22.9517 18.7984 22.7854 18.81 22.5929 18.8132C22.565 18.5171 22.564 18.2184 22.5645 17.892C23.126 17.8711 23.6486 17.8054 24.0604 17.346C24.3488 17.0243 24.386 16.6415 24.4308 16.2549C24.4563 16.035 24.4344 15.8096 24.4312 15.5597Z" fill="#3B5892"/>
<path id="Vector_12" d="M4.74023 15.5598C5.0363 15.5318 5.33497 15.5308 5.66143 15.5313C5.71947 15.9841 5.67305 16.4579 5.7972 16.8818C6.00446 17.5893 6.5935 17.8454 7.29481 17.8707C7.36284 17.8732 7.43106 17.8701 7.52491 17.8674C7.5522 18.163 7.55375 18.4608 7.55386 18.7862C7.07378 18.7865 6.59653 18.8437 6.1251 18.6425C5.35414 18.3135 4.74549 17.4762 4.74464 16.6387C4.74428 16.2881 4.74345 15.9374 4.74023 15.5598Z" fill="#3B5892"/>
<path id="Vector_13" d="M15.0636 20.2198C15.3585 20.2191 15.6534 20.2183 15.9761 20.219C16.002 21.2923 16.0002 22.3642 16.0006 23.463C15.3923 23.4912 14.7818 23.4926 14.1435 23.4919C14.1186 23.197 14.1214 22.904 14.1545 22.5844C14.3786 22.5581 14.5733 22.5469 14.7661 22.5617C15.001 22.5798 15.0658 22.4769 15.0629 22.2553C15.054 21.5769 15.0621 20.8983 15.0636 20.2198Z" fill="#3B5892"/>
<path id="Vector_14" d="M19.2153 26.373C19.4394 26.503 19.6634 26.633 19.9051 26.7726C20.292 27.3057 20.3473 27.8671 20.0491 28.4276C19.7421 29.0048 19.2133 29.1893 18.5859 29.1186C18.0272 29.0557 17.6728 28.7273 17.4922 28.2026C17.765 28.1818 18.0071 28.1854 18.249 28.1816C18.8327 28.1726 19.2137 27.7917 19.2171 27.2152C19.2188 26.9345 19.216 26.6538 19.2153 26.373Z" fill="#B5B5B5"/>
<path id="Vector_15" d="M11.7155 26.373C12.2167 26.5066 12.4942 26.8673 12.6917 27.3362C12.6958 27.61 12.7241 27.8767 12.6725 28.127C12.557 28.6866 11.9947 29.0832 11.5756 29.1183C10.8129 29.1822 10.313 28.9944 9.99219 28.2026C10.2651 28.1818 10.5071 28.1854 10.7491 28.1817C11.3327 28.1727 11.7136 27.7918 11.7171 27.2152C11.7188 26.9345 11.7162 26.6538 11.7155 26.373Z" fill="#B5B5B5"/>
<path id="Vector_16" d="M16.4429 14.5962C16.4692 14.7926 16.4537 14.988 16.47 15.1806C16.4921 15.4419 16.4047 15.5375 16.1291 15.534C15.0127 15.5197 13.8961 15.5274 12.7528 15.5265C12.7224 15.2338 12.7189 14.9418 12.7129 14.6229C13.9454 14.5953 15.1803 14.5946 16.4429 14.5962Z" fill="#4C6CB5"/>
<path id="Vector_17" d="M11.6936 26.3648C11.7165 26.6553 11.7191 26.936 11.7174 27.2167C11.7139 27.7933 11.333 28.1742 10.7493 28.1832C10.5074 28.1869 10.2653 28.1833 9.99655 28.1828C9.83077 27.6968 9.84893 27.2354 10.1863 26.803C10.6198 26.4139 11.0892 26.1902 11.6936 26.3648Z" fill="#CBCCCC"/>
<path id="Vector_18" d="M19.1949 26.3668C19.2189 26.6548 19.2216 26.9355 19.2199 27.2162C19.2165 27.7927 18.8355 28.1736 18.2519 28.1826C18.0099 28.1864 17.7679 28.1828 17.4991 28.1822C17.4502 27.9091 17.4281 27.6362 17.4102 27.3371C17.6215 27.0506 17.7951 26.7507 18.0443 26.5403C18.3625 26.2715 18.7672 26.2441 19.1949 26.3668Z" fill="#CBCCCC"/>
<path id="Vector_19" d="M15.0336 20.2189C15.0598 20.8988 15.0518 21.5774 15.0606 22.2558C15.0636 22.4774 14.9987 22.5802 14.7638 22.5622C14.571 22.5474 14.3763 22.5585 14.1557 22.5576C14.1253 21.7958 14.1217 21.0347 14.1152 20.2464C14.4102 20.2188 14.708 20.2182 15.0336 20.2189Z" fill="#4C6CB5"/>
<path id="Vector_20" d="M17.2294 6.55489C17.0216 6.86146 16.853 7.17609 16.6167 7.42701C15.915 8.17219 15.537 9.03993 15.5311 10.0629C15.5299 10.2739 15.4938 10.3777 15.2448 10.3769C14.5355 10.3748 14.5027 10.3334 14.6064 9.55831C14.7583 8.42329 15.2484 7.46481 16.0553 6.65731C16.485 6.2273 16.5807 5.6303 16.3318 5.09117C16.1002 4.58942 15.54 4.25214 14.9818 4.27832C14.3574 4.30761 13.8278 4.75999 13.6818 5.43156C13.6354 5.64486 13.5466 5.68777 13.3511 5.68743C12.6371 5.68619 12.601 5.64175 12.8317 4.95341C13.2484 3.7097 14.6065 3.03454 15.822 3.46681C17.086 3.91632 17.7035 5.25423 17.2294 6.55489Z" fill="#E1E6F6"/>
<path id="Vector_21" d="M15.4788 12.6348C15.2096 12.6528 14.9525 12.6558 14.6718 12.6535C14.2916 12.395 14.0548 12.0788 14.1346 11.6128C14.2048 11.203 14.5424 10.892 14.9508 10.844C15.3354 10.7987 15.7239 11.0093 15.8944 11.3556C16.0816 11.7356 16.0065 12.1583 15.6954 12.4544C15.6321 12.5147 15.5592 12.5649 15.4788 12.6348Z" fill="#E1E6F6"/>
</g>
</svg>
