<svg width="44" height="44" viewBox="0 0 44 44" fill="none" xmlns="http://www.w3.org/2000/svg">
<rect width="44" height="44" rx="5" fill="#F8F8F8"/>
<path fill-rule="evenodd" clip-rule="evenodd" d="M23.7588 25.3743C23.2687 24.9561 22.6456 24.7263 22.0013 24.7263C21.357 24.7263 20.7339 24.9561 20.2438 25.3743C19.8102 25.7437 19.2711 25.967 18.7032 26.0124C18.0614 26.0634 17.4587 26.3415 17.0034 26.7968C16.5481 27.2521 16.27 27.8548 16.219 28.4966C16.1746 29.065 15.9498 29.6049 15.5809 30.0372C15.1631 30.5272 14.9336 31.15 14.9336 31.7939C14.9336 32.4378 15.1631 33.0606 15.5809 33.5506C15.9513 33.9836 16.1747 34.5231 16.219 35.0912C16.2697 35.7336 16.5479 36.3368 17.0035 36.7924C17.4592 37.2481 18.0624 37.5263 18.7048 37.577C19.2716 37.6214 19.8115 37.8446 20.2454 38.2135C20.7352 38.6309 21.3577 38.8601 22.0013 38.8601C22.6448 38.8601 23.2673 38.6309 23.7572 38.2135C24.1908 37.844 24.7299 37.6208 25.2978 37.5754C25.9399 37.5247 26.5429 37.2468 26.9985 36.7914C27.4541 36.3361 27.7325 35.7333 27.7836 35.0912C27.828 34.5244 28.0512 33.9829 28.4201 33.5506C28.8379 33.0606 29.0674 32.4378 29.0674 31.7939C29.0674 31.15 28.8379 30.5272 28.4201 30.0372C28.0506 29.6036 27.8274 29.0645 27.782 28.4966C27.731 27.8548 27.4528 27.2521 26.9976 26.7968C26.5423 26.3415 25.9396 26.0634 25.2978 26.0124C24.7299 25.967 24.1924 25.7437 23.7588 25.3743ZM25.187 31.079C25.301 30.9726 25.393 30.8447 25.4576 30.7027C25.5222 30.5607 25.5582 30.4073 25.5636 30.2514C25.569 30.0955 25.5436 29.9401 25.4889 29.7939C25.4342 29.6478 25.3512 29.5139 25.2447 29.3999C25.1383 29.2858 25.0104 29.1939 24.8684 29.1293C24.7264 29.0646 24.5731 29.0286 24.4172 29.0232C24.2612 29.0179 24.1058 29.0433 23.9597 29.098C23.8136 29.1527 23.6797 29.2356 23.5656 29.3421L20.9848 31.7535L20.437 31.2421C20.2066 31.0271 19.9003 30.9124 19.5854 30.9232C19.2705 30.9341 18.9728 31.0696 18.7578 31.2999C18.5428 31.5302 18.4281 31.8365 18.439 32.1514C18.4498 32.4663 18.5853 32.764 18.8156 32.979L20.1725 34.2457C20.3925 34.4512 20.6822 34.5654 20.9832 34.5654C21.2842 34.5654 21.5739 34.4512 21.7939 34.2457L25.187 31.079Z" fill="#61BE7A"/>
<path opacity="0.5" d="M6.16797 22.9993V16.666C6.16797 12.1883 6.16797 9.94793 7.55972 8.55777C8.94989 7.16602 11.1903 7.16602 15.668 7.16602H28.3346C32.8123 7.16602 35.0527 7.16602 36.4429 8.55777C37.8346 9.94793 37.8346 12.1883 37.8346 16.666V22.9993C37.8346 27.477 37.8346 29.7174 36.4429 31.1076C35.1208 32.4313 33.0292 32.4962 28.9743 32.4993C29.0888 32.0748 29.0982 31.6288 29.0016 31.1998C28.9051 30.7708 28.7055 30.3718 28.4201 30.0373C28.0507 29.6037 27.8274 29.0646 27.7821 28.4967C27.731 27.8548 27.4529 27.2522 26.9976 26.7969C26.5423 26.3416 25.9396 26.0635 25.2978 26.0124C24.7299 25.9671 24.1908 25.7438 23.7572 25.3743C23.2672 24.9566 22.6444 24.7271 22.0005 24.7271C21.3566 24.7271 20.7338 24.9566 20.2438 25.3743C19.8102 25.7438 19.2711 25.9671 18.7032 26.0124C18.0614 26.0635 17.4587 26.3416 17.0034 26.7969C16.5482 27.2522 16.27 27.8548 16.219 28.4967C16.1746 29.0651 15.9498 29.605 15.5809 30.0373C15.2955 30.3718 15.096 30.7708 14.9994 31.1998C14.9028 31.6288 14.9122 32.0748 15.0267 32.4993C10.9734 32.4962 8.88339 32.4313 7.55972 31.1076C6.16797 29.7174 6.16797 27.477 6.16797 22.9993Z" fill="#CDCDCD"/>
<path d="M16.0651 13.5C16.0651 13.1851 16.1902 12.883 16.4129 12.6603C16.6356 12.4376 16.9377 12.3125 17.2526 12.3125H26.7526C27.0675 12.3125 27.3696 12.4376 27.5923 12.6603C27.815 12.883 27.9401 13.1851 27.9401 13.5C27.9401 13.8149 27.815 14.117 27.5923 14.3397C27.3696 14.5624 27.0675 14.6875 26.7526 14.6875H17.2526C16.9377 14.6875 16.6356 14.5624 16.4129 14.3397C16.1902 14.117 16.0651 13.8149 16.0651 13.5ZM14.0859 17.8542C13.771 17.8542 13.4689 17.9793 13.2462 18.202C13.0235 18.4247 12.8984 18.7267 12.8984 19.0417C12.8984 19.3566 13.0235 19.6587 13.2462 19.8814C13.4689 20.1041 13.771 20.2292 14.0859 20.2292H29.9193C30.2342 20.2292 30.5363 20.1041 30.759 19.8814C30.9817 19.6587 31.1068 19.3566 31.1068 19.0417C31.1068 18.7267 30.9817 18.4247 30.759 18.202C30.5363 17.9793 30.2342 17.8542 29.9193 17.8542H14.0859Z" fill="black"/>
</svg>
