<svg width="19" height="19" viewBox="0 0 19 19" fill="none" xmlns="http://www.w3.org/2000/svg">
<g id="SearchOutline">
<path id="Vector" d="M16.625 16.625L11.875 11.875M13.4583 7.91667C13.4583 8.64441 13.315 9.36503 13.0365 10.0374C12.758 10.7097 12.3498 11.3206 11.8352 11.8352C11.3206 12.3498 10.7097 12.758 10.0374 13.0365C9.36503 13.315 8.64441 13.4583 7.91667 13.4583C7.18892 13.4583 6.46831 13.315 5.79596 13.0365C5.12362 12.758 4.51271 12.3498 3.99812 11.8352C3.48353 11.3206 3.07533 10.7097 2.79683 10.0374C2.51834 9.36503 2.375 8.64441 2.375 7.91667C2.375 6.44693 2.95885 5.03738 3.99812 3.99812C5.03738 2.95885 6.44693 2.375 7.91667 2.375C9.38641 2.375 10.796 2.95885 11.8352 3.99812C12.8745 5.03738 13.4583 6.44693 13.4583 7.91667Z" stroke="#8C8989" stroke-width="2" stroke-linecap="round" stroke-linejoin="round"/>
</g>
</svg>
